<?xml version="1.0" standalone="no"?>
<!DOCTYPE svg PUBLIC "-//W3C//DTD SVG 20010904//EN"
 "http://www.w3.org/TR/2001/REC-SVG-20010904/DTD/svg10.dtd">
<svg version="1.0" xmlns="http://www.w3.org/2000/svg"
 width="500.000000pt" height="138.000000pt" viewBox="0 0 500.000000 138.000000"
 preserveAspectRatio="xMidYMid meet">

<g transform="translate(0.000000,138.000000) scale(0.100000,-0.100000)"
fill="#000000" stroke="none">
<path d="M0 690 l0 -690 2500 0 2500 0 0 690 0 690 -2500 0 -2500 0 0 -690z
m2574 381 c24 -42 25 -129 1 -203 -9 -29 -46 -113 -82 -186 -62 -128 -64 -136
-58 -185 8 -55 33 -127 44 -127 22 0 49 38 95 131 48 98 53 104 91 115 l40 11
6 149 c10 243 21 278 83 272 27 -3 32 -8 41 -45 6 -23 13 -44 16 -48 4 -3 28
8 55 24 53 35 99 39 144 16 34 -18 49 -41 70 -110 14 -45 19 -50 48 -53 18 -2
36 -11 42 -22 5 -10 9 -79 9 -153 -1 -74 3 -142 8 -151 7 -13 25 15 84 131
l74 148 38 3 c21 2 45 -2 52 -8 11 -9 16 -3 25 32 43 169 71 229 125 276 70
62 152 38 176 -52 22 -80 -19 -222 -111 -394 -29 -53 -40 -86 -40 -116 0 -55
27 -146 44 -146 39 0 100 129 132 281 33 157 49 199 78 199 30 0 65 -39 121
-137 26 -46 53 -88 61 -94 27 -22 47 -4 75 65 42 104 109 164 170 151 43 -10
69 -49 69 -104 0 -54 -23 -97 -74 -136 -40 -31 -45 -59 -25 -141 20 -78 32
-73 134 56 43 55 82 100 87 100 28 0 16 -39 -38 -116 -77 -113 -113 -144 -165
-144 -53 0 -90 20 -130 72 -52 67 -62 70 -73 17 -22 -113 -112 -166 -211 -125
-18 8 -41 26 -51 41 -17 26 -18 26 -32 9 -7 -11 -17 -25 -21 -33 -6 -9 -33
-15 -82 -18 -70 -4 -77 -2 -116 26 l-42 30 -34 -62 c-36 -67 -64 -85 -111 -73
-31 8 -49 44 -67 128 -6 29 -15 57 -19 62 -5 4 -24 -4 -43 -18 -42 -32 -95
-43 -127 -26 -32 17 -57 83 -65 170 -9 109 -12 111 -87 62 -34 -22 -82 -48
-106 -57 -23 -10 -47 -26 -52 -36 -6 -10 -10 -65 -10 -123 0 -94 -2 -106 -19
-116 -29 -15 -59 -12 -69 8 -5 9 -12 42 -16 72 -14 115 -28 171 -47 181 -16 8
-24 -1 -63 -79 -55 -110 -99 -152 -158 -152 -38 0 -47 5 -94 55 -29 30 -55 55
-57 55 -3 0 -21 -26 -41 -58 -46 -76 -69 -96 -111 -96 -43 0 -68 23 -90 82 -9
26 -21 59 -27 75 l-10 27 -33 -20 c-38 -24 -74 -26 -101 -5 -10 8 -22 15 -25
15 -3 0 -19 -20 -37 -45 -18 -25 -44 -50 -58 -56 -39 -14 -87 5 -116 46 -12
19 -26 35 -29 35 -4 0 -18 -18 -33 -40 -65 -99 -163 -105 -231 -16 -27 35 -65
132 -65 164 0 28 -20 42 -62 42 -36 0 -38 -1 -38 -33 0 -55 -30 -138 -60 -169
-39 -39 -114 -40 -154 -3 -36 34 -56 84 -56 144 0 54 -6 63 -37 55 -19 -5 -21
-15 -25 -87 -4 -96 -24 -134 -91 -169 -56 -29 -158 -30 -205 -3 -39 23 -72 80
-72 124 0 71 38 122 119 158 61 27 59 15 26 176 -15 73 -16 96 -7 138 16 69
44 104 96 124 73 28 148 -5 175 -78 17 -44 14 -114 -5 -121 -41 -16 -54 -6
-86 62 -18 37 -37 66 -43 65 -5 -2 -11 -31 -13 -65 -3 -67 23 -168 59 -227 17
-29 23 -31 74 -31 54 0 57 2 104 50 61 63 87 65 150 12 57 -48 83 -62 115 -62
22 0 30 10 59 73 55 119 144 175 205 130 40 -29 70 -88 56 -110 -20 -32 -42
-27 -64 16 -11 23 -27 41 -34 41 -48 0 -69 -230 -32 -340 24 -71 34 -84 53
-68 31 25 113 209 128 283 23 121 51 157 90 118 15 -14 16 -29 10 -95 -6 -76
11 -268 24 -268 7 0 97 177 127 248 19 46 83 111 112 113 149 10 172 8 184
-14 7 -13 13 -73 14 -152 2 -215 3 -216 50 -123 23 46 26 64 29 182 2 138 20
230 60 321 57 130 175 169 229 76z m-826 -170 c8 -5 12 -21 10 -37 -3 -25 -7
-29 -33 -29 -24 0 -31 5 -33 23 -6 39 25 63 56 43z"/>
<path d="M3692 1034 c-19 -36 -42 -141 -42 -193 0 -70 22 -68 49 4 32 84 25
249 -7 189z"/>
<path d="M2466 993 c-36 -109 -43 -220 -13 -210 18 5 56 126 57 179 0 89 -20
103 -44 31z"/>
<path d="M2920 899 c-44 -62 -70 -140 -70 -214 0 -61 1 -65 23 -65 71 0 137
100 137 206 0 119 -35 148 -90 73z"/>
<path d="M3902 577 c-15 -35 -15 -47 -2 -47 14 0 22 24 18 52 -4 22 -5 22 -16
-5z"/>
<path d="M1089 553 c-20 -23 -19 -138 1 -138 20 0 43 72 35 112 -7 40 -19 48
-36 26z"/>
<path d="M643 545 c-40 -17 -53 -42 -53 -99 0 -83 76 -130 131 -80 18 16 21
27 16 75 -5 60 -30 119 -50 119 -6 -1 -26 -7 -44 -15z"/>
<path d="M3944 416 c-9 -22 2 -46 21 -46 12 0 15 8 13 27 -3 30 -25 42 -34 19z"/>
</g>
</svg>
